<svg width="78" height="40" viewBox="0 0 78 40" fill="none" xmlns="http://www.w3.org/2000/svg">
<path d="M10.9678 0.0371325C9.62054 0.249334 7.94977 0.859414 6.59193 1.63925C3.21325 3.5809 1.10225 6.49867 0.497584 10.053C0.200557 11.809 0.290726 13.9629 0.725658 15.6286C1.8342 19.8355 5.06437 22.6737 10.1456 23.9098L10.7291 24.053L14.3093 24.0796L17.8895 24.1114L18.351 24.2759C19.0936 24.5411 19.5815 24.8488 20.1172 25.3846C20.6636 25.9257 20.9553 26.4138 21.1621 27.1406C21.2629 27.496 21.2841 27.6817 21.2841 28.382C21.2841 29.0875 21.2682 29.2573 21.1674 29.5756C20.7537 30.8806 19.5391 31.8727 17.8153 32.313C17.4387 32.4085 17.1045 32.4138 8.88858 32.4138H0.359679V36.2069V40H8.33166C13.1743 40 16.5476 39.9788 16.9348 39.9469C19.4436 39.7347 22.0532 39.0981 24.0953 38.1963C26.0313 37.3422 27.7232 36.122 28.1582 35.2679L28.2643 35.0663L29.0174 35.8249C29.8767 36.6897 30.3912 37.1141 31.3353 37.7454C34.7882 40.0477 38.9784 40.6048 42.861 39.2785C44.012 38.8806 45.3115 38.2175 46.2556 37.5385C46.4837 37.374 46.6905 37.2414 46.717 37.2414C46.7436 37.2414 46.9769 37.3687 47.2315 37.5225C49.2683 38.7533 51.4429 39.5544 53.6123 39.8727C54.1427 39.9523 54.8747 39.9682 59.0755 39.9841C62.2738 40 64.1992 39.9894 64.719 39.9523C68.8402 39.6499 72.3303 38.0902 74.3935 35.6233C75.6983 34.069 76.4409 32.2599 76.7485 29.9204C76.7804 29.6446 76.8122 28.8806 76.8122 28.2228C76.8016 23.1088 74.9292 19.4164 71.3808 17.5119C70.5004 17.0398 69.0683 16.5676 68.0128 16.3926C67.8112 16.3607 67.5831 16.3183 67.5089 16.3024C67.4346 16.2865 65.6949 16.2546 63.6369 16.2334C60.3909 16.2016 59.8605 16.1857 59.6059 16.1114C58.1844 15.687 57.3729 14.6419 57.166 12.9761C56.8743 10.6737 57.9934 8.91246 60.253 8.13793L60.8523 7.93103L68.9304 7.91512L77.0031 7.90451V3.95225V-2.82191e-06H67.9703C57.9563 -2.82191e-06 58.5663 -0.021223 57.341 0.35013C55.5217 0.901854 53.6017 1.94164 52.2067 3.14058C50.0268 5.00796 48.7273 7.27851 48.2552 10.053C48.1438 10.6897 48.0324 12.2812 48.0802 12.4721C48.1226 12.6207 48.0324 12.5942 47.8521 12.4085C47.5975 12.1379 46.8178 11.496 46.2609 11.1034C43.0095 8.79045 38.936 8.06896 35.1277 9.13528C33.4516 9.60212 31.7066 10.504 30.2745 11.6499C29.6486 12.1538 28.5189 13.2891 27.9938 13.9523C26.7049 15.5756 25.7342 17.4536 25.1508 19.443L24.9811 20.0212L24.5833 19.2202C24.2067 18.4721 24.1589 18.4085 23.846 18.1591C22.7905 17.3156 21.4751 16.7109 20.0112 16.3873C19.502 16.2759 19.3376 16.2653 15.821 16.2334C12.5484 16.2016 12.1294 16.191 11.8429 16.1061C11.2913 15.9416 10.814 15.6605 10.4108 15.2573C9.75845 14.5995 9.44551 13.7825 9.39247 12.5889C9.35534 11.8249 9.42429 11.2997 9.64706 10.695C10.0449 9.60212 11.0102 8.68965 12.2726 8.22281C13.1743 7.88329 12.5484 7.90451 22.207 7.90451H31.0171V3.95225V-2.82191e-06L21.0614 0.00530222C15.5823 0.0106073 11.042 0.0265224 10.9678 0.0371325ZM38.9466 16.2599C41.3546 16.679 43.3224 19.3475 43.7733 22.7958C43.8741 23.5703 43.8741 25.0239 43.7733 25.7984C43.5028 27.8674 42.6647 29.7294 41.466 30.939C38.5541 33.8621 34.592 32.2281 33.1334 27.496C32.8363 26.5464 32.6984 25.5066 32.6984 24.2971C32.6984 23.2997 32.7462 22.8064 32.9265 21.9204C33.4251 19.5013 34.7776 17.4748 36.4537 16.6472C36.9045 16.4191 37.122 16.3501 37.6153 16.2599C38.1245 16.1645 38.4003 16.1645 38.9466 16.2599ZM53.1455 21.9682C54.5087 22.8541 56.6197 23.6764 58.2958 23.9788C58.8421 24.0796 59.1179 24.0849 62.1571 24.0849H65.4297L65.8965 24.2228C66.7769 24.4775 67.5778 24.9814 68.1348 25.6393C69.0152 26.6737 69.3229 28.3979 68.8667 29.7188C68.4424 30.9284 67.2172 31.8939 65.5835 32.3024C65.1327 32.4191 65.1115 32.4191 59.3566 32.3979C53.0872 32.382 53.3948 32.3926 52.4719 32.0849C52.0476 31.9469 51.2785 31.5756 51.2785 31.5119C51.2785 31.4801 51.3846 31.2149 51.5119 30.9125C52.0582 29.618 52.4666 28.1167 52.6947 26.5199C52.8114 25.6764 52.822 22.9655 52.7 22.1591C52.6629 21.878 52.631 21.6446 52.6417 21.6446C52.647 21.6446 52.875 21.7878 53.1455 21.9682Z" fill="#EE1D25"/>
</svg>
